<?xml version="1.0" encoding="UTF-8" standalone="no"?>
<!-- Created with Inkscape (http://www.inkscape.org/) -->

<svg
   xmlns:dc="http://purl.org/dc/elements/1.1/"
   xmlns:cc="http://creativecommons.org/ns#"
   xmlns:rdf="http://www.w3.org/1999/02/22-rdf-syntax-ns#"
   xmlns:svg="http://www.w3.org/2000/svg"
   xmlns="http://www.w3.org/2000/svg"
   xmlns:sodipodi="http://sodipodi.sourceforge.net/DTD/sodipodi-0.dtd"
   xmlns:inkscape="http://www.inkscape.org/namespaces/inkscape"
   width="208.57365"
   height="209.44402"
   id="svg2"
   version="1.1"
   inkscape:version="0.48.0 r9654"
   sodipodi:docname="Nuovo documento 1">
  <defs
     id="defs4" />
  <sodipodi:namedview
     id="base"
     pagecolor="#ffffff"
     bordercolor="#666666"
     borderopacity="1.0"
     inkscape:pageopacity="0.0"
     inkscape:pageshadow="2"
     inkscape:zoom="1.4"
     inkscape:cx="347.18079"
     inkscape:cy="146.01544"
     inkscape:document-units="px"
     inkscape:current-layer="layer1"
     showgrid="false"
     fit-margin-top="0"
     fit-margin-left="0"
     fit-margin-right="0"
     fit-margin-bottom="0"
     inkscape:window-width="1680"
     inkscape:window-height="994"
     inkscape:window-x="-4"
     inkscape:window-y="-4"
     inkscape:window-maximized="1" />
  <metadata
     id="metadata7">
    <rdf:RDF>
      <cc:Work
         rdf:about="">
        <dc:format>image/svg+xml</dc:format>
        <dc:type
           rdf:resource="http://purl.org/dc/dcmitype/StillImage" />
        <dc:title></dc:title>
      </cc:Work>
    </rdf:RDF>
  </metadata>
  <g
     inkscape:label="Livello 1"
     inkscape:groupmode="layer"
     id="layer1"
     transform="translate(-117.28349,-516.79076)">
    <path
       style="fill:#282828"
       d="M 186.29034,215.03549 C 182.25815,212.57694 179,206.31365 179,201.02094 c 0,-2.59373 -1.08285,-6.08795 -3,-9.6806 -3.42444,-6.41727 -3.92886,-12.64343 -1.41774,-17.49942 1.51689,-2.93333 1.48062,-3.16886 -0.87781,-5.70034 -5.46758,-5.86876 -6.19571,-11.664 -2.20445,-17.54544 3.17447,-4.67785 3.1367,-5.80597 -0.36548,-10.91496 -7.65274,-11.16387 -12.05687,-22.75273 -12.95766,-34.09633 -0.58203,-7.329424 -1.00676,-8.999912 -2.1991,-8.649246 -0.81277,0.239032 -3.65003,0.622308 -6.30503,0.851724 -5.42684,0.46893 -8.48654,-1.508407 -10.73548,-6.937812 -0.72197,-1.743 -2.79863,-3.757473 -5.06578,-4.914086 -5.13406,-2.619204 -7.19868,-5.937451 -6.63961,-10.671141 0.24445,-2.069809 0.77533,-4.511433 1.17973,-5.425832 0.63179,-1.428578 -0.22497,-1.755762 -6.08816,-2.32496 -12.27734,-1.191883 -20.23305,-4.26164 -38.331256,-14.790336 l -4.507827,-2.622443 -4.392654,2.950141 C 68.594731,57.41327 63.885678,56.912826 57.769006,51.208931 l -2.730994,-2.546696 -5.337409,1.814241 C 43.060701,52.733449 38.573031,52.031538 33.41001,47.928485 31.319624,46.267255 28.684714,44.978563 27.554654,45.064724 20.782329,45.581082 17.933909,44.880868 14.483713,41.851556 8.1163717,36.260956 6.255625,29.273929 9.4757557,23.046883 11.38466,19.35547 16.860869,16 20.976442,16 c 2.915609,0 3.180365,0.239093 2.641632,2.385578 -1.135434,4.523928 1.27109,4.624247 11.381926,0.47447 9.175345,-3.765824 9.858829,-3.891783 20,-3.685781 L 65.5,15.387558 66,11.443779 66.5,7.5 71.780254,7.6398488 c 6.153929,0.1629884 19.55463,6.0812512 25.409301,11.2217202 4.201875,3.689296 5.822345,3.888257 8.405455,1.032021 4.63708,-5.127371 13.5932,-7.281604 20.08989,-4.832256 1.54831,0.583734 4.27807,2.472461 6.06614,4.197172 l 3.25103,3.135837 5.01881,-1.804739 c 5.56124,-1.999794 9.42707,-1.675114 15.21998,1.278281 l 3.62871,1.850017 3.76816,-3.858951 C 165.95911,16.457551 166.96558,16 171.12622,16 c 3.57606,0 5.44056,0.606031 7.69141,2.5 3.68128,3.097595 4.21295,3.097595 8.77751,0 C 199.91813,10.137391 214.86261,25.081869 206.5,37.404862 205.125,39.431038 204,41.49885 204,42 c 0,0.50115 1.125,2.568962 2.5,4.595138 1.75338,2.583749 2.5,5.032073 2.5,8.198019 0,3.991143 -0.46764,4.945784 -4.03684,8.240854 l -4.03684,3.72679 2.12644,3.604055 c 1.7199,2.915006 2.03423,4.706354 1.64412,9.3696 -0.26528,3.171049 -0.80805,7.002956 -1.20614,8.515348 -0.60266,2.289517 -0.11845,3.419874 2.89272,6.752881 3.37947,3.74067 3.61654,4.432226 3.61654,10.549855 0,7.01091 -1.49382,11.09201 -5.71148,15.60376 l -2.48316,2.6563 4.07656,5.15723 c 6.23524,7.88817 10.39284,17.37016 10.5153,23.98162 L 216.5,158.5 l -3.64867,0.30432 -3.64867,0.30433 -0.39984,12.19567 c -0.37069,11.3068 -0.66238,12.8152 -4.00205,20.69568 -3.81983,9.01351 -3.67739,11.08139 0.70558,10.24354 2.18971,-0.41859 2.49319,-0.1273 2.48991,2.38988 -0.005,3.85665 -3.23748,8.92284 -6.90238,10.81803 -4.14672,2.14435 -10.91643,1.95413 -14.80354,-0.41596 z m 13.73715,-2.72753 c 4.69295,-3.21157 5.16377,-5.44416 1.5001,-7.11344 -3.81387,-1.73771 -3.98465,-4.90435 -0.68592,-12.71841 4.10758,-9.73008 5.52429,-16.98693 4.79815,-24.5778 -1.32552,-13.85668 -1.68284,-12.43215 3.04451,-12.13755 2.30139,0.14341 4.43798,-0.14964 4.74798,-0.65123 1.05631,-1.70915 -3.392,-13.73709 -7.33873,-19.84345 -2.16476,-3.34931 -5.3214,-7.11397 -7.01476,-8.36592 -1.69335,-1.25195 -3.06174,-2.75415 -3.04087,-3.33822 0.0209,-0.58407 1.74037,-2.23785 3.82111,-3.67508 9.22279,-6.37044 9.51181,-20.40436 0.53448,-25.952657 C 198.52709,92.780676 197,91.60555 197,91.322811 c 0,-0.282738 0.97158,-1.87853 2.15907,-3.546203 1.18749,-1.667673 2.35259,-5.112139 2.58912,-7.65437 0.68357,-7.347129 -2.35091,-10.917452 -13.68867,-16.105921 -1.86078,-0.851545 -2.24754,-2.167697 -1.14783,-3.906143 0.72965,-1.153455 1.64605,-1.018588 5.38831,0.793006 5.30716,2.569153 8.78171,2.07969 11.71582,-1.650416 3.41156,-4.337107 1.87341,-9.769399 -3.98795,-14.084155 l -3.16706,-2.331391 3.47884,-3.378608 c 4.88862,-4.747768 6.27253,-9.366273 4.14806,-13.843261 -3.5472,-7.475185 -12.07516,-7.893908 -18.84382,-0.925232 l -3.54302,3.647717 -1.7691,-3.082478 c -4.42569,-7.711315 -13.17789,-8.321182 -16.87294,-1.175733 -1.709,3.304839 -1.28482,5.87437 1.66036,10.057893 1.62363,2.306294 1.67154,2.791272 0.38154,3.861875 -2.32018,1.925585 -3.86037,0.637145 -5.7734,-4.829721 C 157.31718,26.282187 153.36048,23.5 145.97555,23.5 c -4.24721,0 -6.1991,0.530681 -8.44254,2.295372 l -2.91809,2.295372 -3.73017,-4.363928 C 122.73914,14.197276 111.22268,15.592534 103.86787,27 l -1.61184,2.5 -4.878015,-5.113245 C 91.783987,18.522969 85.923559,14.938028 77.858209,12.446102 70.35028,10.1264 68.815202,10.746845 70.145157,15.563546 c 0.558282,2.021931 0.64151,4.031677 0.184951,4.466102 -0.456559,0.434425 -3.71295,0.07599 -7.236424,-0.796513 -8.178063,-2.025107 -17.278326,-0.8549 -28.538239,3.669748 -8.922677,3.58546 -12.478052,3.668326 -14.133317,0.329407 -1.637063,-3.302204 -2.03272,-3.511062 -4.326131,-2.283666 C 13.827728,22.162565 11,26.934961 11,29.549211 11,32.750508 14.252833,37.99314 17.474496,39.984237 19.711339,41.366683 22.467063,42 26.245589,42 c 3.919702,0 5.905552,0.479733 6.881966,1.662516 0.754845,0.914383 3.302865,2.518368 5.662267,3.564409 3.683644,1.633145 4.814093,1.731872 8,0.698679 2.040598,-0.661768 4.904645,-2.040753 6.364548,-3.06441 3.633106,-2.547465 4.256855,-2.378327 5.673141,1.538341 0.831196,2.298631 2.380976,3.946047 4.785643,5.087136 4.44952,2.111436 7.836181,1.346533 11.246684,-2.540146 C 76.28188,47.325936 77.950394,46 78.567648,46 c 0.617254,0 4.004546,1.869715 7.527316,4.154922 17.878406,11.597648 31.181836,15.219477 49.803826,13.558975 2.94517,-0.262617 3.79495,1.635282 1.54324,3.446677 C 132.50596,71.131413 130,74.063233 130,75.867313 c 0,3.085914 4.12502,7.206332 8.00978,8.000851 2.37612,0.485968 3.5716,1.332446 3.77312,2.671596 0.7799,5.182878 1.40517,6.2955 4.18497,7.446931 4.20542,1.741942 7.51027,0.593769 10.03109,-3.485013 1.19029,-1.925923 2.91496,-3.501804 3.8326,-3.501959 1.46328,-2.46e-4 1.66844,1.444629 1.66844,11.75 0,14.245291 2.2339,22.182921 9.73915,34.605731 8.66892,14.34895 8.40815,13.46044 4.89286,16.67116 -5.91901,5.40618 -5.30447,11.60207 1.61145,16.24686 l 4.21562,2.83124 -2.72954,4.12462 c -3.77558,5.70529 -3.76794,12.06494 0.0205,17.03179 2.09187,2.74259 2.75,4.722 2.75,8.27103 0,11.53091 10.06688,19.22358 18.02749,13.77581 z m -11.10441,-4.23104 c -2.93958,-2.93957 -3.24208,-4.13795 -2.94912,-11.6833 0.13068,-3.36572 -0.3937,-4.65952 -2.90726,-7.17308 -2.39879,-2.39878 -3.0667,-3.93681 -3.0667,-7.06183 0,-7.21069 1.70178,-8.71067 6.39428,-5.63602 2.18579,1.43218 5.60572,1.14596 5.60572,-0.46916 0,-0.40288 -1.125,-1.24508 -2.5,-1.87158 -3.15723,-1.43852 -3.18026,-2.91488 -0.0676,-4.33311 3.10376,-1.41417 4.94893,-5.83613 4.0821,-9.78279 -0.86918,-3.95732 -1.84405,-3.86758 -4.36295,0.40165 -2.45142,4.15485 -6.37149,5.48052 -10.06906,3.40513 -3.72007,-2.08802 -4.84906,-6.05397 -2.67007,-9.37953 1.63956,-2.50229 1.85368,-2.56244 3.57523,-1.00447 1.70755,1.54531 1.89754,1.53872 2.81328,-0.0976 1.36362,-2.43666 -0.51452,-7.31658 -7.16503,-18.61677 -6.9311,-11.77694 -9.02695,-17.18716 -10.68972,-27.59446 -2.83103,-17.719496 3.48908,-33.705075 15.27169,-38.626952 4.86889,-2.03385 7.06568,-1.959196 11.68435,0.397072 3.80994,1.943686 7.1017,6.909151 7.09403,10.701009 -0.006,3.017069 -3.74876,8.248649 -6.3721,8.907065 -1.34083,0.336528 -3.31432,0.142813 -4.38552,-0.430478 -1.7182,-0.919551 -2.08674,-0.578073 -3.12839,2.898652 -1.37488,4.588916 -4.03675,6.368324 -8.1689,5.46075 -3.37292,-0.740818 -4.06397,1.247408 -1.36992,3.941452 1.87757,1.87758 3.7825,1.99185 6.36094,0.38159 1.49414,-0.933105 2.2464,-0.906685 3.48643,0.12245 1.99921,1.6592 2.05792,7.42685 0.0922,9.05825 -0.81894,0.67967 -1.24239,1.63477 -0.94098,2.12245 0.86473,1.39916 6.06362,1.03304 7.35058,-0.51766 1.41926,-1.7101 0.43967,-6.24342 -1.51086,-6.99191 C 189.62942,104.3043 189,102.72079 189,101.05706 c 0,-2.328253 0.67616,-3.355356 3,-4.55706 2.70526,-1.398944 3.29308,-1.399804 5.98307,-0.0088 3.19724,1.653354 6.01693,6.10118 6.01693,9.49121 0,3.6049 -2.72514,8.7912 -5.61693,10.68976 -1.66614,1.09387 -5.41381,2.02854 -9.33353,2.32778 l -6.54954,0.5 6,3.85139 c 8.5184,5.46794 14.21819,11.26 17.58543,17.87009 4.82327,9.46837 3.67482,12.77438 -3.20222,9.21812 -5.33932,-2.76106 -6.02959,-1.63029 -3.08904,5.0604 2.27011,5.16523 2.62683,7.32172 2.56401,15.5 -0.0659,8.58203 -0.42495,10.34003 -3.71557,18.19339 -4.207,10.04036 -4.54954,13.88376 -1.49134,16.73292 1.78644,1.66432 1.93527,2.26449 0.87756,3.53895 -2.00262,2.41301 -5.89839,1.81902 -9.10575,-1.38834 z m 7.88717,-104.69524 c -0.8916,-0.8916 -2.15843,-1.28453 -2.82105,-0.875 -1.40014,0.86533 0.50502,2.45218 2.97509,2.47801 1.22091,0.0128 1.19531,-0.25366 -0.15404,-1.60301 z M 183.26232,85 c 1.0034,0 1.72342,-1.021923 1.92126,-2.726829 0.19209,-1.655428 1.23355,-3.181566 2.6506,-3.884184 4.19652,-2.080751 4.56687,-3.080101 1.81074,-4.885988 -5.21771,-3.418777 -13.63081,2.469262 -13.64118,9.547001 -0.005,3.677611 1.92112,5.327973 4.01135,3.436346 C 180.9184,85.668856 182.37966,85 183.26232,85 z m -38.1483,4.417819 c -1.44259,-1.833957 -1.86205,-3.427661 -1.44758,-5.5 C 144.23531,81.073434 144.14676,81 140.14805,81 c -3.24177,0 -4.43623,-0.510183 -5.69607,-2.432942 -2.92275,-4.460688 1.28072,-8.443588 7.47529,-7.083032 3.30251,0.725352 5.13471,-1.012192 2.08725,-1.979417 -2.28103,-0.723972 -2.75722,-4.644737 -0.76452,-6.29476 0.6875,-0.569272 3.93498,-1.32434 7.21661,-1.677928 C 156.65645,60.864981 166,56.636137 166,54.501586 c 0,-0.649306 -1.125,-1.69314 -2.5,-2.319632 -1.96645,-0.895977 -2.5,-1.878514 -2.5,-4.603811 0,-5.605657 5.68742,-8.168283 12.4349,-5.602894 1.41081,0.536387 2.5651,0.782561 2.5651,0.547053 0,-1.887043 -2.81729,-5.486041 -6.0767,-7.762798 C 166.70126,32.508847 166,31.427463 166,28.709504 166,24.803775 167.50562,23 170.76574,23 c 3.77781,0 5.8781,1.652611 7.61401,5.991063 2.03409,5.083701 2.08094,10.842394 0.10597,13.024719 -1.36723,1.510767 -1.21936,2.044375 1.52259,5.494678 5.03381,6.334223 5.36576,12.39898 0.86186,15.746172 -3.39572,2.523622 -6.69594,1.541597 -8.07051,-2.401487 -0.9702,-2.783125 -1.13706,-2.859778 -2.85023,-1.309382 C 167.2416,61.996319 164,69.512158 164,73.339878 c 0,4.386846 -1.7654,9.356118 -3.56988,10.048562 -2.25884,0.866799 -4.39487,-0.399826 -5.04543,-2.99183 -1.0171,-4.052449 -2.36955,-1.56531 -1.72116,3.165192 1.03159,7.526298 -4.341,11.206273 -8.54951,5.856017 z m 22.58295,-17.054183 c -0.97874,-0.978742 -0.84069,-5.588299 0.21742,-7.259353 1.05773,-1.670472 3.88039,-0.802649 4.74864,1.459963 0.67831,1.767662 -3.78523,6.980217 -4.96606,5.79939 z M 113.91637,59.545049 C 106.12723,57.559811 97.885511,53.760613 88.991813,48.055544 80.588026,42.664739 73.44789,40.15211 71.647837,41.952163 c -0.797008,0.797008 -0.729624,1.687228 0.245955,3.249379 1.169211,1.872205 1.108673,2.323487 -0.46617,3.475041 C 70.432187,49.404462 68.783295,50 67.763416,50 64.804972,50 61,45.499349 61,42 c 0,-3.336936 3.762245,-8 6.454545,-8 2.016794,0 1.99228,-1.614559 -0.03633,-2.393011 C 62.543258,29.736293 55,32.404762 55,36 c 0,2.161146 -3.110981,0.844019 -4.133404,-1.75 -1.079535,-2.738918 -1.088049,-2.741071 -2.112749,-0.534323 -0.782809,1.685824 -0.637256,2.813318 0.608654,4.714817 2.004712,3.059577 2.00471,3.059438 0.06607,4.998077 C 48.516006,44.341137 46.154674,45 43.796649,45 c -3.305727,0 -4.644314,-0.619029 -7.201323,-3.330248 -3.026122,-3.208624 -3.366779,-3.313903 -9.327727,-2.882727 -5.832205,0.421863 -6.361204,0.273216 -9.22725,-2.59283 C 15.80555,33.959396 15,32.221766 15,29.63594 c 0,-4.694664 1.413746,-5.307028 5.097009,-2.207766 3.583256,3.015111 4.513318,2.902575 16.868047,-2.040999 C 44.332018,22.439387 46.566739,22 54.192227,22 c 6.920524,0 10.165354,0.528178 15.438592,2.513019 3.672062,1.38216 6.838242,2.351254 7.035955,2.15354 0.197714,-0.197713 -0.321428,-1.989118 -1.153647,-3.9809 -3.154132,-7.5489 -1.210228,-9.067047 6.871996,-5.366882 7.030154,3.218511 13.333599,9.073001 18.778557,17.441076 l 4.33632,6.664268 0.5776,-5.962061 c 0.70106,-7.236439 2.06179,-9.966502 6.23622,-12.511833 8.86232,-5.403742 21.04912,1.941781 16.5584,9.980479 -1.89082,3.384698 -6.05538,3.886136 -8.87314,1.068378 -1.18928,-1.189282 -3.07521,-1.985148 -4.29045,-1.810577 -2.42608,0.348512 -4.39005,4.593366 -3.36323,7.269196 0.59216,1.543145 0.88083,1.509508 3.28674,-0.382988 3.31463,-2.607288 5.55769,-2.627421 7.87154,-0.07065 1.49534,1.652333 1.615,2.440041 0.68182,4.488151 -1.32437,2.906683 -0.67673,5.174521 1.86641,6.535567 3.05746,1.636305 3.62406,1.132144 3.5344,-3.144922 -0.0701,-3.343764 0.41391,-4.495292 2.57664,-6.130257 4.6473,-3.513232 10.63996,0.04449 6.70427,3.980182 -1.82946,1.829457 -0.19885,4.267578 2.8514,4.263479 6.32608,-0.0085 12.28824,-6.848481 10.87561,-12.476851 C 151.74087,33.119366 149.39217,33.340942 147.5,37 c -1.18322,2.288086 -2.24023,3 -4.45425,3 -7.08615,0 -8.52679,-9.148526 -1.97423,-12.536985 3.81878,-1.974765 6.80573,-1.835251 10.62993,0.496501 10.86115,6.622428 7.18943,21.830092 -6.97022,28.86959 -5.80358,2.885258 -7.93193,3.383099 -15.9638,3.734082 -6.01059,0.262656 -11.22967,-0.09515 -14.85106,-1.018139 z m 9.34806,-29.142815 C 124.23758,29.429089 122.90144,27 121.39301,27 c -1.57216,0 -1.6372,0.200086 -0.78602,2.418213 0.63034,1.642636 1.62903,2.012439 2.65744,0.984021 z m 68.4099,26.924305 C 190.47845,55.856136 188.0375,53.186354 186.25,51.393691 182.24615,47.378272 182.18703,46.337468 185.91632,45.518379 192.58175,44.054405 202,48.972802 202,53.917593 c 0,5.87112 -6.5614,8.03732 -10.32567,3.408946 z m -39.1839,0.657979 C 151.69276,56.693856 155.70263,52 157.60289,52 c 0.68984,0 1.99354,0.739286 2.89711,1.642857 1.35758,1.357576 1.41339,1.861083 0.32143,2.89956 -1.93505,1.840262 -7.49058,2.801929 -8.331,1.442101 z M 182,41.528513 c 0,-2.403532 4.9335,-12.828822 7.22539,-15.268425 2.51263,-2.674579 7.85657,-3.035266 10.20318,-0.688659 2.38328,2.383275 1.99222,8.098688 -0.74114,10.83205 C 196.43855,38.652358 186.40408,43 183.46249,43 182.65812,43 182,42.337831 182,41.528513 z"
       id="path2996"
       inkscape:connector-curvature="0"
       transform="translate(109.35715,509.29076)" />
  </g>
</svg>
